<svg xmlns="http://www.w3.org/2000/svg" viewBox="0 0 240 240"><title>Guardião do conhecimento</title><ellipse cx="120" cy="220" rx="70" ry="10" fill="#102f3a" opacity=".12"/><rect x="57" y="111" width="126" height="103" rx="42" fill="#19665c"/><rect x="49" y="28" width="142" height="118" rx="44" fill="#f7d89a"/><path d="M58 62Q120 5 182 62" fill="#143943"/><g fill="none" stroke="#143943" stroke-width="7"><rect x="65" y="78" width="47" height="31" rx="12"/><rect x="128" y="78" width="47" height="31" rx="12"/><path d="M112 88h16"/></g><g fill="#143943"><circle cx="91" cy="92" r="4"/><circle cx="151" cy="92" r="4"/></g><path d="M108 124q12 10 24 0" fill="none" stroke="#143943" stroke-width="5" stroke-linecap="round"/><path d="M77 160q20-7 43 5q23-12 43-5v49q-22-5-43 5q-21-10-43-5z" fill="#fff9ec" stroke="#143943" stroke-width="4"/><path d="M120 166v45" stroke="#143943" stroke-width="3"/><path d="M132 181l8 8l13-15" fill="none" stroke="#19665c" stroke-width="5" stroke-linecap="round" stroke-linejoin="round"/></svg>
